<?xml version="1.0" encoding="UTF-8"?><svg id="_ロゴ" xmlns="http://www.w3.org/2000/svg" viewBox="0 0 803.61 106.77"><defs><style>.cls-1,.cls-2,.cls-3{stroke-width:0px;}.cls-2{fill:#415fd2;}.cls-3{fill:#3c3c3c;}</style></defs><rect class="cls-2" x="165.81" y="0" width="12.25" height="56.69"/><polygon class="cls-2" points="109.91 0 109.91 56.69 157.35 56.69 157.35 47.88 121.93 47.88 121.93 32 154.91 32 154.91 23.19 121.93 23.19 121.93 8.8 156.67 8.8 156.67 0 109.91 0"/><polygon class="cls-2" points="249.26 0 249.26 56.69 296.7 56.69 296.7 47.88 261.29 47.88 261.29 32 294.26 32 294.26 23.19 261.29 23.19 261.29 8.8 296.03 8.8 296.03 0 249.26 0"/><path class="cls-2" d="M188.13,56.69h28.8c22.31,0,25.92-17.45,25.92-28.02C242.84,14.87,237.64,0,214.14,0h-26.01v56.69ZM214.16,47.89h-13.77V8.8h11.91c13.01,0,17.78,7.32,17.78,19.97s-5.54,19.12-15.93,19.12"/><polygon class="cls-2" points="305.26 0 305.26 56.69 315.95 56.69 315.95 10.1 342.16 56.69 360.25 56.69 360.25 0 349.56 0 349.56 46.59 323.35 0 305.26 0"/><polygon class="cls-2" points="79.5 0 65.82 41.24 51.89 0 31.43 0 31.43 56.69 43.45 56.69 43.45 8.8 59.65 56.69 71.97 56.69 87.94 8.8 87.94 56.69 99.96 56.69 99.96 0 79.5 0"/><polygon class="cls-3" points="379.22 81.69 375.07 81.69 372.09 87.49 369.26 81.69 364.69 81.69 369.5 89.76 364.24 99.2 368.54 99.2 371.86 92.56 375.14 99.2 379.61 99.2 374.38 89.76 379.22 81.69"/><path class="cls-3" d="M299.33,81.47c-2.58,0-3.76,1.42-4.47,2.54h-.08v-10.29h-4.05v25.49h4.05v-10.19c0-2.26.79-4.22,3.08-4.22,1.81,0,2.5,1.21,2.5,3.91v10.5h4.05v-11.29c0-3.54-1.19-6.44-5.1-6.44Z"/><rect class="cls-3" x="225.77" y="74.29" width="4.19" height="4"/><rect class="cls-3" x="225.84" y="81.69" width="4.05" height="17.51"/><path class="cls-3" d="M206.45,96.41c-3.29,0-4.88-2.59-4.88-5.9,0-3.78,1.41-6,4.68-6,1.12,0,2.15.44,2.89.81l.22-3.16c-.79-.3-2.3-.7-3.59-.7-5.83,0-8.39,4.02-8.39,9.01s2.43,8.97,8.16,8.97c1.65,0,3.09-.33,4.06-.7l-.23-3.15c-.64.37-1.95.8-2.92.8Z"/><path class="cls-3" d="M243.54,81.46c-2.81,0-4.14,1.89-4.73,2.98h-.08c0-.95-.08-2.06-.13-2.75h-3.77c.08.86.12,1.81.12,2.87v14.64h4.06v-10.2c0-2.26.79-4.23,3.08-4.23,1.81,0,2.5,1.21,2.5,3.91v10.51h4.05v-11.29c0-3.54-1.18-6.45-5.09-6.45Z"/><path class="cls-3" d="M339.87,81.46c-2.81,0-4.14,1.89-4.73,2.98h-.08c0-.95-.08-2.06-.13-2.75h-3.77c.08.86.12,1.81.12,2.87v14.64h4.05v-10.2c0-2.26.79-4.23,3.08-4.23,1.81,0,2.5,1.21,2.5,3.91v10.51h4.06v-11.29c0-3.54-1.18-6.45-5.09-6.45Z"/><path class="cls-3" d="M153.63,81.46c-2.81,0-4.14,1.89-4.73,2.98h-.08c0-.95-.08-2.06-.13-2.75h-3.77c.08.86.12,1.81.12,2.87v14.64h4.05v-10.2c0-2.26.79-4.23,3.08-4.23,1.81,0,2.5,1.21,2.5,3.91v10.51h4.06v-11.29c0-3.54-1.18-6.45-5.09-6.45Z"/><path class="cls-3" d="M35.9,81.69h-4.06v10.2c0,2.26-.79,4.23-3.08,4.23-1.81,0-2.5-1.21-2.5-3.91v-10.51h-4.05v11.29c0,3.54,1.18,6.45,5.09,6.45,2.81,0,4.14-1.89,4.73-2.98h.08c0,.95.08,2.06.13,2.75h3.77c-.08-.86-.12-1.81-.12-2.86v-14.65Z"/><path class="cls-3" d="M171.91,81.46c-2.81,0-4.14,1.89-4.73,2.98h-.08c0-.95-.08-2.06-.13-2.75h-3.77c.08.86.12,1.81.12,2.87v14.64h4.05v-10.2c0-2.26.79-4.23,3.08-4.23,1.81,0,2.5,1.21,2.5,3.91v10.51h4.06v-11.29c0-3.54-1.18-6.45-5.09-6.45Z"/><path class="cls-3" d="M120.54,96.41c-3.3,0-4.89-2.59-4.89-5.9,0-3.78,1.41-6,4.68-6,1.12,0,2.15.44,2.89.81l.22-3.16c-.79-.3-2.3-.7-3.59-.7-5.82,0-8.39,4.02-8.39,9.01s2.43,8.97,8.16,8.97c1.65,0,3.08-.33,4.06-.7l-.23-3.15c-.64.37-1.95.8-2.92.8Z"/><path class="cls-3" d="M95.22,95.05h-.09l-3.63-13.35h-4.18l5.81,17.74-.31,1.54c-.54,1.81-1.11,2.65-2.43,2.62-.61,0-1.07-.15-1.52-.31l-.23,3.08c.61.2,1.53.42,2.61.42,2.77,0,4.18-1.77,4.92-4.18l6.39-20.9h-3.91l-3.42,13.35Z"/><rect class="cls-3" x="67.72" y="74.24" width="4.19" height="4.05"/><path class="cls-3" d="M82.02,76.85l-4.05,1.25v3.59h-2.79v3h2.79v9.72c0,3.65,1.73,5.05,4.81,5.05,1.22,0,2.11-.26,2.75-.55v-2.85c-.21.09-.97.31-1.64.31-1.29,0-1.86-.55-1.86-2.48v-9.21h3.5v-3h-3.5v-4.84Z"/><path class="cls-3" d="M218.39,76.85l-4.05,1.25v3.59h-2.79v3h2.79v9.72c0,3.65,1.73,5.05,4.81,5.05,1.22,0,2.11-.26,2.75-.55v-2.85c-.21.09-.97.31-1.64.31-1.29,0-1.86-.55-1.86-2.48v-9.21h3.5v-3h-3.5v-4.84Z"/><path class="cls-3" d="M283.71,76.85l-4.05,1.25v3.59h-2.79v3h2.79v9.72c0,3.65,1.73,5.05,4.81,5.05,1.22,0,2.11-.26,2.75-.55v-2.85c-.21.09-.97.31-1.64.31-1.29,0-1.86-.55-1.86-2.48v-9.21h3.5v-3h-3.5v-4.84Z"/><path class="cls-3" d="M391.63,84.69v-3h-3.5v-4.84l-4.05,1.25v3.59h-2.79v3h2.79v9.72c0,3.65,1.73,5.05,4.81,5.05,1.22,0,2.11-.26,2.75-.55v-2.85c-.21.09-.97.31-1.64.31-1.29,0-1.86-.55-1.86-2.48v-9.21h3.5Z"/><rect class="cls-3" x="67.79" y="81.69" width="4.06" height="17.51"/><rect class="cls-3" x="58.27" y="73.7" width="4.05" height="25.51"/><path class="cls-3" d="M355.53,81.47c-4.39,0-7.13,4.01-7.13,9.25,0,4.72,2.42,8.73,8.01,8.73,2.45,0,4.26-.72,5.16-1.1l-.2-3.14c-.8.58-2.04,1.29-4.52,1.29-3.33,0-4.54-1.86-4.54-4.98h10.13v-.74c0-7.14-3.2-9.32-6.92-9.32ZM352.32,89.03c0-2.4.91-4.85,3.21-4.85,1.98,0,3.02,1.65,3.02,4.85h-6.23Z"/><path class="cls-3" d="M314.71,81.47c-4.39,0-7.13,4.01-7.13,9.25,0,4.72,2.42,8.73,8.01,8.73,2.45,0,4.25-.72,5.16-1.1l-.19-3.14c-.8.58-2.04,1.29-4.51,1.29-3.33,0-4.54-1.86-4.54-4.98h10.13v-.74c0-7.14-3.19-9.32-6.92-9.32ZM311.49,89.03c0-2.4.91-4.85,3.22-4.85,1.98,0,3.01,1.65,3.01,4.85h-6.22Z"/><path class="cls-3" d="M263.13,84.47h-.07c-.86-1.56-2.27-3-4.78-3-4.52,0-6.25,4.2-6.25,9.04,0,7.06,3.64,8.67,6.04,8.67,2.71,0,4.03-1.54,4.71-2.98h.07v1.76c0,2.78-.66,5.62-4.72,5.62-2.15,0-4.07-.9-5.1-1.46l-.22,3.57c1.04.38,3.21,1.07,5.93,1.07,6.37,0,8.01-3.87,8.01-9.35v-12.99c0-.89.07-1.84.14-2.74h-3.65c-.03.89-.13,1.81-.13,2.78ZM259.07,96.24c-1.51,0-2.84-1.83-2.84-5.96,0-3.58.84-5.71,3.14-5.75,2.09-.04,3.49,2.02,3.49,5.72,0,4-1.06,5.99-3.79,5.99Z"/><path class="cls-3" d="M187.58,81.47c-4.38,0-7.13,4.01-7.13,9.25,0,4.72,2.43,8.73,8.01,8.73,2.45,0,4.25-.72,5.16-1.1l-.19-3.14c-.81.58-2.05,1.29-4.53,1.29-3.32,0-4.53-1.86-4.53-4.98h10.14v-.74c0-7.14-3.21-9.32-6.94-9.32ZM184.38,89.03c0-2.4.92-4.85,3.21-4.85,1.99,0,3.02,1.65,3.02,4.85h-6.22Z"/><path class="cls-3" d="M133.76,81.47c-3.53,0-7.64,1.85-7.64,8.97s4.11,9.02,7.64,9.02,7.61-1.68,7.61-9.02-4.07-8.97-7.61-8.97ZM133.76,96.61c-2.81,0-3.45-3.25-3.45-6.17s.64-6.13,3.45-6.13,3.42,3.21,3.42,6.13-.61,6.17-3.42,6.17Z"/><path class="cls-3" d="M53.29,88.47c0-4.39-1.24-7-6.63-7-2.63,0-4.27.73-5.45,1.27l.22,3.2c.88-.69,2.69-1.63,4.72-1.63,2.47,0,3.35,1.66,3.35,3.43v.73h-.94c-5.34,0-9.14,1.2-9.14,5.9,0,3.23,2.47,5.07,5.16,5.07,2.51,0,3.92-1.1,4.98-2.66h.08c0,.91.07,1.81.21,2.41h3.65c-.09-.7-.22-1.83-.22-3.05v-7.68ZM49.51,91.64c0,3.15-.93,5.11-3.52,5.11-1.68,0-2.78-1.13-2.78-2.78,0-2.65,2.24-3.4,5.84-3.4h.46v1.07Z"/><path class="cls-3" d="M18.76,87.34c0-8.55-4.5-12.19-9.38-12.19s-9.38,3.64-9.38,12.19,4.5,12.19,9.38,12.19h.78l3.34,4.21h4.78l-4.65-5.27c2.98-1.67,5.12-5.23,5.12-11.12ZM9.38,96.34c-2.83,0-5.05-2.44-5.05-9s2.22-9,5.05-9,5.05,2.43,5.05,9-2.21,9-5.05,9Z"/><path class="cls-1" d="M448.33,4.25h4.95l8.57,22.87,8.61-22.87h4.95v27.21h-3.43V8.82h-.08l-8.5,22.64h-3.09l-8.5-22.64h-.08v22.64h-3.43V4.25Z"/><path class="cls-1" d="M481.45,4.25h18.79v3.05h-15.17v8.65h14.14v3.05h-14.14v9.41h15.28v3.05h-18.9V4.25Z"/><path class="cls-1" d="M504.89,4.25h3.62v27.21h-3.62V4.25Z"/><path class="cls-1" d="M514.6,4.25h9.34c8.38,0,13.07,4.19,13.07,12.96s-4,14.25-13.07,14.25h-9.34V4.25ZM518.23,28.41h6.02c2.48,0,9.15-.69,9.15-10.71,0-6.48-2.4-10.4-9.07-10.4h-6.1v21.11Z"/><path class="cls-1" d="M541.44,4.25h18.79v3.05h-15.17v8.65h14.14v3.05h-14.14v9.41h15.28v3.05h-18.9V4.25Z"/><path class="cls-1" d="M564.68,4.25h3.85l14.33,22.07h.08V4.25h3.43v27.21h-3.96l-14.21-21.84h-.08v21.84h-3.43V4.25Z"/><path class="cls-1" d="M609.01,7.3h-9.07v-3.05h21.76v3.05h-9.07v24.16h-3.62V7.3Z"/><path class="cls-1" d="M639.19,28.07c-1.64,2.55-4.73,3.85-7.7,3.85-7.36,0-8.5-5.22-8.5-7.43,0-4.27,2.9-6.4,6.36-8.23-1.53-2.17-3.01-3.62-3.01-6.4,0-2.97,2.21-5.6,6.14-5.6,3.39,0,6.59,1.87,6.59,5.56,0,3.24-2.48,5.56-5.11,7.05l4.92,5.98c.5-1.33.8-2.78.88-4.23h3.09c-.27,3.2-.69,4.31-1.83,6.71l5.3,6.14h-4.23l-2.9-3.39ZM631.15,18.31c-2.55,1.45-4.73,2.9-4.73,6.14,0,2.74,2.55,4.61,5.19,4.61,2.48,0,4.46-1.26,5.79-3.24l-6.25-7.51ZM635.84,10c0-1.56-1.18-2.9-3.13-2.9-1.52,0-3.13.91-3.13,2.9,0,1.64,1.45,3.24,2.63,4.73,1.56-.99,3.62-2.44,3.62-4.73Z"/><path class="cls-1" d="M648.72,4.25h9.34c8.38,0,13.07,4.19,13.07,12.96s-4,14.25-13.07,14.25h-9.34V4.25ZM652.34,28.41h6.02c2.48,0,9.15-.69,9.15-10.71,0-6.48-2.4-10.4-9.07-10.4h-6.1v21.11Z"/><path class="cls-1" d="M687.98,35.41c-3.66-5.72-5.98-11.17-5.98-17.84,0-5.95,2.1-12.39,5.98-17.57h2.48c-3.62,5.72-5.03,11.4-5.03,17.57s1.41,12.01,5.03,17.84h-2.48Z"/><path class="cls-1" d="M697.01,4.25h3.62v27.21h-3.62V4.25Z"/><path class="cls-1" d="M706.69,4.25h3.85l14.33,22.07h.08V4.25h3.43v27.21h-3.96l-14.22-21.84h-.07v21.84h-3.43V4.25Z"/><path class="cls-1" d="M734.24,4.25h9.34c8.38,0,13.07,4.19,13.07,12.96s-4,14.25-13.07,14.25h-9.34V4.25ZM737.86,28.41h6.02c2.48,0,9.15-.69,9.15-10.71,0-6.48-2.4-10.4-9.07-10.4h-6.1v21.11Z"/><path class="cls-1" d="M761.23,4.25h3.62v27.21h-3.62V4.25Z"/><path class="cls-1" d="M778.34,4.25h4l10.63,27.21h-4l-2.97-8.19h-11.51l-3.05,8.19h-3.73l10.63-27.21ZM775.63,20.22h9.22l-4.54-12.69h-.07l-4.61,12.69Z"/><path class="cls-1" d="M795.15,35.41c3.62-5.72,5.03-11.4,5.03-17.57s-1.41-12-5.03-17.84h2.48c3.66,5.72,5.98,11.17,5.98,17.84,0,5.95-2.1,12.39-5.98,17.57h-2.48Z"/></svg>